<mxfile host="app.diagrams.net" agent="Mozilla/5.0 (Windows NT 10.0; Win64; x64) AppleWebKit/537.36 (KHTML, like Gecko) Chrome/135.0.0.0 Safari/537.36" version="26.2.13">
  <diagram name="Σελίδα-1" id="iN9jYaZmVMVzDFcv0H2W">
    <mxGraphModel dx="1228" dy="629" grid="1" gridSize="10" guides="1" tooltips="1" connect="1" arrows="1" fold="1" page="1" pageScale="1" pageWidth="827" pageHeight="1169" math="0" shadow="0">
      <root>
        <mxCell id="0" />
        <mxCell id="1" parent="0" />
        <mxCell id="TvQpU1DDECIcJuuF-ziT-1" value="χρήστης" style="shape=umlActor;verticalLabelPosition=bottom;verticalAlign=top;html=1;outlineConnect=0;" parent="1" vertex="1">
          <mxGeometry x="60" y="45" width="30" height="60" as="geometry" />
        </mxCell>
        <mxCell id="TvQpU1DDECIcJuuF-ziT-22" value="επιλέγει να γράψει κριτική" style="endArrow=none;html=1;rounded=0;" parent="1" edge="1">
          <mxGeometry width="50" height="50" relative="1" as="geometry">
            <mxPoint x="230" y="180" as="sourcePoint" />
            <mxPoint x="110" y="110" as="targetPoint" />
          </mxGeometry>
        </mxCell>
        <mxCell id="TvQpU1DDECIcJuuF-ziT-31" value="παράθυρο κριτικής" style="ellipse;whiteSpace=wrap;html=1;aspect=fixed;" parent="1" vertex="1">
          <mxGeometry x="275" y="270" width="80" height="80" as="geometry" />
        </mxCell>
        <mxCell id="TvQpU1DDECIcJuuF-ziT-32" value="" style="endArrow=none;html=1;rounded=0;" parent="1" edge="1">
          <mxGeometry width="50" height="50" relative="1" as="geometry">
            <mxPoint x="260" y="310" as="sourcePoint" />
            <mxPoint x="275" y="309.5" as="targetPoint" />
          </mxGeometry>
        </mxCell>
        <mxCell id="TvQpU1DDECIcJuuF-ziT-33" value="" style="endArrow=none;html=1;rounded=0;" parent="1" edge="1">
          <mxGeometry width="50" height="50" relative="1" as="geometry">
            <mxPoint x="260" y="330" as="sourcePoint" />
            <mxPoint x="260" y="290" as="targetPoint" />
          </mxGeometry>
        </mxCell>
        <mxCell id="TvQpU1DDECIcJuuF-ziT-34" value="" style="endArrow=none;html=1;rounded=0;exitX=1;exitY=0.5;exitDx=0;exitDy=0;entryX=-0.024;entryY=0.673;entryDx=0;entryDy=0;entryPerimeter=0;" parent="1" source="TvQpU1DDECIcJuuF-ziT-31" edge="1" target="Hqv099XkB52VYJ3C3I_9-15">
          <mxGeometry width="50" height="50" relative="1" as="geometry">
            <mxPoint x="370" y="330" as="sourcePoint" />
            <mxPoint x="460" y="310" as="targetPoint" />
          </mxGeometry>
        </mxCell>
        <mxCell id="TvQpU1DDECIcJuuF-ziT-35" value="υπβάλλει την κριτική" style="endArrow=none;html=1;rounded=0;" parent="1" edge="1">
          <mxGeometry width="50" height="50" relative="1" as="geometry">
            <mxPoint x="270" y="270" as="sourcePoint" />
            <mxPoint x="80" y="140" as="targetPoint" />
          </mxGeometry>
        </mxCell>
        <mxCell id="TvQpU1DDECIcJuuF-ziT-38" value="οχι" style="endArrow=none;html=1;rounded=0;entryX=0.969;entryY=0.662;entryDx=0;entryDy=0;entryPerimeter=0;exitX=0.279;exitY=0.167;exitDx=0;exitDy=0;exitPerimeter=0;" parent="1" source="Hqv099XkB52VYJ3C3I_9-17" target="Hqv099XkB52VYJ3C3I_9-16" edge="1">
          <mxGeometry width="50" height="50" relative="1" as="geometry">
            <mxPoint x="427.60000000000014" y="490" as="sourcePoint" />
            <mxPoint x="390.79999999999995" y="445.20000000000005" as="targetPoint" />
          </mxGeometry>
        </mxCell>
        <mxCell id="TvQpU1DDECIcJuuF-ziT-40" value="αξιολόγηση χρήστη" style="ellipse;whiteSpace=wrap;html=1;aspect=fixed;" parent="1" vertex="1">
          <mxGeometry x="730" y="470" width="70" height="70" as="geometry" />
        </mxCell>
        <mxCell id="TvQpU1DDECIcJuuF-ziT-41" value="" style="endArrow=none;html=1;rounded=0;entryX=0.5;entryY=1;entryDx=0;entryDy=0;exitX=0.701;exitY=0.171;exitDx=0;exitDy=0;exitPerimeter=0;" parent="1" source="Hqv099XkB52VYJ3C3I_9-14" edge="1" target="Hqv099XkB52VYJ3C3I_9-12">
          <mxGeometry width="50" height="50" relative="1" as="geometry">
            <mxPoint x="588.2842712474621" y="401.71572875253764" as="sourcePoint" />
            <mxPoint x="720" y="100" as="targetPoint" />
            <Array as="points" />
          </mxGeometry>
        </mxCell>
        <mxCell id="TvQpU1DDECIcJuuF-ziT-42" value="" style="endArrow=none;html=1;rounded=0;exitX=0.972;exitY=0.36;exitDx=0;exitDy=0;exitPerimeter=0;entryX=0.02;entryY=0.558;entryDx=0;entryDy=0;entryPerimeter=0;" parent="1" source="Hqv099XkB52VYJ3C3I_9-14" edge="1" target="Hqv099XkB52VYJ3C3I_9-13">
          <mxGeometry width="50" height="50" relative="1" as="geometry">
            <mxPoint x="601.2" y="414" as="sourcePoint" />
            <mxPoint x="665" y="400" as="targetPoint" />
          </mxGeometry>
        </mxCell>
        <mxCell id="TvQpU1DDECIcJuuF-ziT-43" value="" style="endArrow=none;html=1;rounded=0;" parent="1" edge="1">
          <mxGeometry width="50" height="50" relative="1" as="geometry">
            <mxPoint x="730" y="540" as="sourcePoint" />
            <mxPoint x="797" y="540" as="targetPoint" />
          </mxGeometry>
        </mxCell>
        <mxCell id="TvQpU1DDECIcJuuF-ziT-45" value="" style="endArrow=none;html=1;rounded=0;exitX=0.813;exitY=0.97;exitDx=0;exitDy=0;exitPerimeter=0;" parent="1" source="Hqv099XkB52VYJ3C3I_9-13" target="TvQpU1DDECIcJuuF-ziT-40" edge="1">
          <mxGeometry width="50" height="50" relative="1" as="geometry">
            <mxPoint x="729.24" y="426" as="sourcePoint" />
            <mxPoint x="740" y="400" as="targetPoint" />
          </mxGeometry>
        </mxCell>
        <mxCell id="gAIUqOrA6iphY5wcJg3d-3" value="" style="endArrow=none;html=1;rounded=0;exitX=0.357;exitY=0.192;exitDx=0;exitDy=0;exitPerimeter=0;entryX=0.5;entryY=1;entryDx=0;entryDy=0;" parent="1" source="Hqv099XkB52VYJ3C3I_9-16" target="TvQpU1DDECIcJuuF-ziT-31" edge="1">
          <mxGeometry width="50" height="50" relative="1" as="geometry">
            <mxPoint x="333.20000000000005" y="422.79999999999995" as="sourcePoint" />
            <mxPoint x="330" y="350" as="targetPoint" />
          </mxGeometry>
        </mxCell>
        <mxCell id="gAIUqOrA6iphY5wcJg3d-6" value="ναι" style="endArrow=none;html=1;rounded=0;exitX=1.032;exitY=0.571;exitDx=0;exitDy=0;strokeColor=#FF0000;exitPerimeter=0;entryX=0.004;entryY=0.411;entryDx=0;entryDy=0;entryPerimeter=0;" parent="1" source="Hqv099XkB52VYJ3C3I_9-9" edge="1" target="Hqv099XkB52VYJ3C3I_9-16">
          <mxGeometry width="50" height="50" relative="1" as="geometry">
            <mxPoint x="230.00000000000318" y="430" as="sourcePoint" />
            <mxPoint x="310" y="450" as="targetPoint" />
          </mxGeometry>
        </mxCell>
        <mxCell id="gAIUqOrA6iphY5wcJg3d-11" value="ναι" style="endArrow=none;html=1;rounded=0;entryX=0.09;entryY=0.901;entryDx=0;entryDy=0;entryPerimeter=0;exitX=0.938;exitY=0.324;exitDx=0;exitDy=0;exitPerimeter=0;" parent="1" target="Hqv099XkB52VYJ3C3I_9-14" edge="1" source="Hqv099XkB52VYJ3C3I_9-17">
          <mxGeometry width="50" height="50" relative="1" as="geometry">
            <mxPoint x="475" y="510" as="sourcePoint" />
            <mxPoint x="530.9194738979936" y="457.4649413185614" as="targetPoint" />
          </mxGeometry>
        </mxCell>
        <mxCell id="gAIUqOrA6iphY5wcJg3d-12" value="οχι" style="endArrow=none;html=1;rounded=0;strokeColor=#FF0000;exitX=0.896;exitY=0.31;exitDx=0;exitDy=0;exitPerimeter=0;entryX=0.115;entryY=0.867;entryDx=0;entryDy=0;entryPerimeter=0;" parent="1" edge="1" target="Hqv099XkB52VYJ3C3I_9-17" source="Hqv099XkB52VYJ3C3I_9-10">
          <mxGeometry width="50" height="50" relative="1" as="geometry">
            <mxPoint x="360" y="600" as="sourcePoint" />
            <mxPoint x="410" y="550" as="targetPoint" />
          </mxGeometry>
        </mxCell>
        <mxCell id="gAIUqOrA6iphY5wcJg3d-24" value="" style="endArrow=none;html=1;rounded=0;entryX=1;entryY=0.5;entryDx=0;entryDy=0;exitX=-0.018;exitY=0.498;exitDx=0;exitDy=0;strokeColor=#FF0000;entryPerimeter=0;exitPerimeter=0;" parent="1" source="Hqv099XkB52VYJ3C3I_9-10" target="Hqv099XkB52VYJ3C3I_9-8" edge="1">
          <mxGeometry width="50" height="50" relative="1" as="geometry">
            <mxPoint x="280" y="610.0000000000002" as="sourcePoint" />
            <mxPoint x="190" y="610.0000000000002" as="targetPoint" />
          </mxGeometry>
        </mxCell>
        <mxCell id="Hqv099XkB52VYJ3C3I_9-1" value="" style="endArrow=none;html=1;rounded=0;entryX=0.127;entryY=0.222;entryDx=0;entryDy=0;exitX=0.995;exitY=0.724;exitDx=0;exitDy=0;exitPerimeter=0;entryPerimeter=0;" edge="1" parent="1" source="Hqv099XkB52VYJ3C3I_9-11" target="Hqv099XkB52VYJ3C3I_9-15">
          <mxGeometry width="50" height="50" relative="1" as="geometry">
            <mxPoint x="360" y="210" as="sourcePoint" />
            <mxPoint x="471.7157287525383" y="281.7157287525383" as="targetPoint" />
          </mxGeometry>
        </mxCell>
        <mxCell id="Hqv099XkB52VYJ3C3I_9-3" value="" style="endArrow=none;html=1;rounded=0;exitX=0.773;exitY=0.063;exitDx=0;exitDy=0;exitPerimeter=0;strokeColor=#FF0000;entryX=0.346;entryY=0.96;entryDx=0;entryDy=0;entryPerimeter=0;" edge="1" parent="1" source="Hqv099XkB52VYJ3C3I_9-8" target="Hqv099XkB52VYJ3C3I_9-9">
          <mxGeometry width="50" height="50" relative="1" as="geometry">
            <mxPoint x="162.55999999999995" y="569.3600000000001" as="sourcePoint" />
            <mxPoint x="190" y="470" as="targetPoint" />
          </mxGeometry>
        </mxCell>
        <mxCell id="Hqv099XkB52VYJ3C3I_9-5" value="επιστροφή στο παράθυρο κριτικής" style="ellipse;shape=umlControl;whiteSpace=wrap;html=1;strokeColor=#FF0000;fontColor=#FF0000;" vertex="1" parent="1">
          <mxGeometry x="30" y="440" width="70" height="80" as="geometry" />
        </mxCell>
        <mxCell id="Hqv099XkB52VYJ3C3I_9-7" value="" style="endArrow=none;html=1;rounded=0;entryX=0.845;entryY=0.923;entryDx=0;entryDy=0;entryPerimeter=0;fontColor=#FF0000;strokeColor=#FF0000;exitX=0.378;exitY=0.063;exitDx=0;exitDy=0;exitPerimeter=0;" edge="1" parent="1" source="Hqv099XkB52VYJ3C3I_9-8" target="Hqv099XkB52VYJ3C3I_9-5">
          <mxGeometry width="50" height="50" relative="1" as="geometry">
            <mxPoint x="128.68746921255456" y="576.1506863964105" as="sourcePoint" />
            <mxPoint x="70" y="530" as="targetPoint" />
          </mxGeometry>
        </mxCell>
        <mxCell id="Hqv099XkB52VYJ3C3I_9-8" value="οθόνη μηνύματος" style="shape=umlBoundary;whiteSpace=wrap;html=1;fontColor=#FF0000;strokeColor=#FF0000;" vertex="1" parent="1">
          <mxGeometry x="90" y="570" width="100" height="80" as="geometry" />
        </mxCell>
        <mxCell id="Hqv099XkB52VYJ3C3I_9-9" value="εμφάνιση ενημερωτικού μηνύματος" style="ellipse;shape=umlControl;whiteSpace=wrap;html=1;fontColor=#FF0000;strokeColor=#FF0000;" vertex="1" parent="1">
          <mxGeometry x="160" y="390" width="70" height="80" as="geometry" />
        </mxCell>
        <mxCell id="Hqv099XkB52VYJ3C3I_9-10" value="εμφάνιση ενημερωτικού μηνύματος" style="ellipse;shape=umlControl;whiteSpace=wrap;html=1;fontColor=#FF0000;strokeColor=#FF0000;" vertex="1" parent="1">
          <mxGeometry x="290" y="570" width="70" height="80" as="geometry" />
        </mxCell>
        <mxCell id="Hqv099XkB52VYJ3C3I_9-11" value="οθόνη προφίλ" style="shape=umlBoundary;whiteSpace=wrap;html=1;" vertex="1" parent="1">
          <mxGeometry x="240" y="150" width="100" height="80" as="geometry" />
        </mxCell>
        <mxCell id="Hqv099XkB52VYJ3C3I_9-12" value="ΒΔ" style="ellipse;shape=umlEntity;whiteSpace=wrap;html=1;" vertex="1" parent="1">
          <mxGeometry x="580" y="50" width="80" height="80" as="geometry" />
        </mxCell>
        <mxCell id="Hqv099XkB52VYJ3C3I_9-13" value="δημιουργία κριτικής" style="ellipse;shape=umlControl;whiteSpace=wrap;html=1;" vertex="1" parent="1">
          <mxGeometry x="660" y="360" width="70" height="80" as="geometry" />
        </mxCell>
        <mxCell id="Hqv099XkB52VYJ3C3I_9-14" value="επικυρώνει την αποθήκευση" style="ellipse;shape=umlControl;whiteSpace=wrap;html=1;" vertex="1" parent="1">
          <mxGeometry x="530" y="390" width="80" height="80" as="geometry" />
        </mxCell>
        <mxCell id="Hqv099XkB52VYJ3C3I_9-15" value="εμφάνιση παραθύρου για να γράψει κριτική" style="ellipse;shape=umlControl;whiteSpace=wrap;html=1;" vertex="1" parent="1">
          <mxGeometry x="460" y="250" width="79" height="90" as="geometry" />
        </mxCell>
        <mxCell id="Hqv099XkB52VYJ3C3I_9-16" value="έλεγχος αν ξεπερνάει το όριο λέξεων" style="ellipse;shape=umlControl;whiteSpace=wrap;html=1;" vertex="1" parent="1">
          <mxGeometry x="310" y="410" width="80" height="90" as="geometry" />
        </mxCell>
        <mxCell id="Hqv099XkB52VYJ3C3I_9-17" value="έλεγχος αν έχουν συμπληρωθεί τα αστέρια" style="ellipse;shape=umlControl;whiteSpace=wrap;html=1;" vertex="1" parent="1">
          <mxGeometry x="400" y="480" width="80" height="90" as="geometry" />
        </mxCell>
      </root>
    </mxGraphModel>
  </diagram>
</mxfile>
